<svg xmlns="http://www.w3.org/2000/svg" viewBox="0 0 800 800" width="100%" height="100%"><defs><radialGradient id="bgGrad" cx="50%" cy="50%" r="75%"><stop offset="0%" stop-color="#1e2230" /><stop offset="100%" stop-color="#0a0c10" /></radialGradient><linearGradient id="goldGrad" x1="0%" y1="0%" x2="100%" y2="100%"><stop offset="0%" stop-color="#ffd700" /><stop offset="50%" stop-color="#d4af37" /><stop offset="100%" stop-color="#800020" /></linearGradient><linearGradient id="glowGrad" x1="0%" y1="0%" x2="100%" y2="100%"><stop offset="0%" stop-color="#ffffff" stop-opacity="0.8"/><stop offset="100%" stop-color="#d4af37" stop-opacity="0.1"/></linearGradient></defs><rect width="800" height="800" fill="url(#bgGrad)" rx="100" /><g transform="translate(400.0, 400.0) rotate(199)"><circle cx="0" cy="0" r="64.0" fill="none" stroke="url(#goldGrad)" stroke-width="2" stroke-dasharray="5 10" opacity="0.15" /><circle cx="0" cy="0" r="128.0" fill="none" stroke="url(#goldGrad)" stroke-width="2" stroke-dasharray="9 12" opacity="0.25" /><circle cx="0" cy="0" r="192.0" fill="none" stroke="url(#goldGrad)" stroke-width="2" stroke-dasharray="13 14" opacity="0.35" /><circle cx="0" cy="0" r="256.0" fill="none" stroke="url(#goldGrad)" stroke-width="2" stroke-dasharray="17 16" opacity="0.45000000000000007" /><circle cx="0" cy="0" r="320.0" fill="none" stroke="url(#goldGrad)" stroke-width="2" stroke-dasharray="21 18" opacity="0.55" /><line x1="0" y1="0" x2="304.0" y2="0.0" stroke="#c0c0c0" stroke-width="1" opacity="0.15" stroke-dasharray="3 3" /><circle cx="304.0" cy="0.0" r="6" fill="url(#goldGrad)" opacity="0.8" /><circle cx="304.0" cy="0.0" r="10" fill="none" stroke="#ffd700" stroke-width="1" opacity="0.3" /><line x1="0" y1="0" x2="269.1786317985758" y2="141.27584430130565" stroke="#c0c0c0" stroke-width="1" opacity="0.15" stroke-dasharray="3 3" /><circle cx="269.1786317985758" cy="141.27584430130565" r="11" fill="url(#goldGrad)" opacity="0.8" /><circle cx="269.1786317985758" cy="141.27584430130565" r="15" fill="none" stroke="#ffd700" stroke-width="1" opacity="0.3" /><line x1="0" y1="0" x2="172.69168300627138" y2="250.18709523167158" stroke="#c0c0c0" stroke-width="1" opacity="0.15" stroke-dasharray="3 3" /><circle cx="172.69168300627138" cy="250.18709523167158" r="7" fill="url(#goldGrad)" opacity="0.8" /><circle cx="172.69168300627138" cy="250.18709523167158" r="11" fill="none" stroke="#ffd700" stroke-width="1" opacity="0.3" /><line x1="0" y1="0" x2="36.64315079761819" y2="301.7834977258084" stroke="#c0c0c0" stroke-width="1" opacity="0.15" stroke-dasharray="3 3" /><circle cx="36.64315079761819" cy="301.7834977258084" r="6" fill="url(#goldGrad)" opacity="0.8" /><circle cx="36.64315079761819" cy="301.7834977258084" r="10" fill="none" stroke="#ffd700" stroke-width="1" opacity="0.3" /><line x1="0" y1="0" x2="-107.79988566093084" y2="284.2449377763661" stroke="#c0c0c0" stroke-width="1" opacity="0.15" stroke-dasharray="3 3" /><circle cx="-107.79988566093084" cy="284.2449377763661" r="6" fill="url(#goldGrad)" opacity="0.8" /><circle cx="-107.79988566093084" cy="284.2449377763661" r="10" fill="none" stroke="#ffd700" stroke-width="1" opacity="0.3" /><line x1="0" y1="0" x2="-227.54726744401466" y2="201.58928810520183" stroke="#c0c0c0" stroke-width="1" opacity="0.15" stroke-dasharray="3 3" /><circle cx="-227.54726744401466" cy="201.58928810520183" r="7" fill="url(#goldGrad)" opacity="0.8" /><circle cx="-227.54726744401466" cy="201.58928810520183" r="11" fill="none" stroke="#ffd700" stroke-width="1" opacity="0.3" /><line x1="0" y1="0" x2="-295.1663124975198" y2="72.75196194341754" stroke="#c0c0c0" stroke-width="1" opacity="0.15" stroke-dasharray="3 3" /><circle cx="-295.1663124975198" cy="72.75196194341754" r="7" fill="url(#goldGrad)" opacity="0.8" /><circle cx="-295.1663124975198" cy="72.75196194341754" r="11" fill="none" stroke="#ffd700" stroke-width="1" opacity="0.3" /><line x1="0" y1="0" x2="-295.1663124975198" y2="-72.7519619434176" stroke="#c0c0c0" stroke-width="1" opacity="0.15" stroke-dasharray="3 3" /><circle cx="-295.1663124975198" cy="-72.7519619434176" r="9" fill="url(#goldGrad)" opacity="0.8" /><circle cx="-295.1663124975198" cy="-72.7519619434176" r="13" fill="none" stroke="#ffd700" stroke-width="1" opacity="0.3" /><line x1="0" y1="0" x2="-227.5472674440147" y2="-201.58928810520177" stroke="#c0c0c0" stroke-width="1" opacity="0.15" stroke-dasharray="3 3" /><circle cx="-227.5472674440147" cy="-201.58928810520177" r="6" fill="url(#goldGrad)" opacity="0.8" /><circle cx="-227.5472674440147" cy="-201.58928810520177" r="10" fill="none" stroke="#ffd700" stroke-width="1" opacity="0.3" /><line x1="0" y1="0" x2="-107.79988566093091" y2="-284.2449377763661" stroke="#c0c0c0" stroke-width="1" opacity="0.15" stroke-dasharray="3 3" /><circle cx="-107.79988566093091" cy="-284.2449377763661" r="7" fill="url(#goldGrad)" opacity="0.8" /><circle cx="-107.79988566093091" cy="-284.2449377763661" r="11" fill="none" stroke="#ffd700" stroke-width="1" opacity="0.3" /><line x1="0" y1="0" x2="36.643150797617984" y2="-301.78349772580845" stroke="#c0c0c0" stroke-width="1" opacity="0.15" stroke-dasharray="3 3" /><circle cx="36.643150797617984" cy="-301.78349772580845" r="9" fill="url(#goldGrad)" opacity="0.8" /><circle cx="36.643150797617984" cy="-301.78349772580845" r="13" fill="none" stroke="#ffd700" stroke-width="1" opacity="0.3" /><line x1="0" y1="0" x2="172.6916830062715" y2="-250.18709523167144" stroke="#c0c0c0" stroke-width="1" opacity="0.15" stroke-dasharray="3 3" /><circle cx="172.6916830062715" cy="-250.18709523167144" r="7" fill="url(#goldGrad)" opacity="0.8" /><circle cx="172.6916830062715" cy="-250.18709523167144" r="11" fill="none" stroke="#ffd700" stroke-width="1" opacity="0.3" /><line x1="0" y1="0" x2="269.17863179857585" y2="-141.2758443013056" stroke="#c0c0c0" stroke-width="1" opacity="0.15" stroke-dasharray="3 3" /><circle cx="269.17863179857585" cy="-141.2758443013056" r="8" fill="url(#goldGrad)" opacity="0.8" /><circle cx="269.17863179857585" cy="-141.2758443013056" r="12" fill="none" stroke="#ffd700" stroke-width="1" opacity="0.3" /><polygon points="128.0,0.0 39.554175279993274,121.73523408577965 -103.55417527999326,75.23651229343658 -103.55417527999329,-75.23651229343655 39.554175279993245,-121.73523408577967" fill="#131822" stroke="url(#goldGrad)" stroke-width="4" filter="drop-shadow(0 0 15px rgba(212,175,55,0.4))" /><circle cx="0" cy="0" r="76.8" fill="none" stroke="#ffffff" stroke-width="1.5" opacity="0.7" stroke-dasharray="8 4" /><circle cx="0" cy="0" r="12" fill="url(#goldGrad)" /><circle cx="0" cy="0" r="20" fill="none" stroke="#ffd700" stroke-width="1" opacity="0.5" /></g></svg>