<svg xmlns="http://www.w3.org/2000/svg" viewBox="0 0 128 128" width="100%" height="100%"><defs><radialGradient id="bgGrad" cx="50%" cy="50%" r="75%"><stop offset="0%" stop-color="#1e2230" /><stop offset="100%" stop-color="#0a0c10" /></radialGradient><linearGradient id="goldGrad" x1="0%" y1="0%" x2="100%" y2="100%"><stop offset="0%" stop-color="#ffd700" /><stop offset="50%" stop-color="#d4af37" /><stop offset="100%" stop-color="#800020" /></linearGradient><linearGradient id="glowGrad" x1="0%" y1="0%" x2="100%" y2="100%"><stop offset="0%" stop-color="#ffffff" stop-opacity="0.8"/><stop offset="100%" stop-color="#d4af37" stop-opacity="0.1"/></linearGradient></defs><rect width="128" height="128" fill="url(#bgGrad)" rx="16" /><g transform="translate(64.0, 64.0) rotate(199)"><circle cx="0" cy="0" r="10.240000000000002" fill="none" stroke="url(#goldGrad)" stroke-width="2" stroke-dasharray="5 10" opacity="0.15" /><circle cx="0" cy="0" r="20.480000000000004" fill="none" stroke="url(#goldGrad)" stroke-width="2" stroke-dasharray="9 12" opacity="0.25" /><circle cx="0" cy="0" r="30.72" fill="none" stroke="url(#goldGrad)" stroke-width="2" stroke-dasharray="13 14" opacity="0.35" /><circle cx="0" cy="0" r="40.96000000000001" fill="none" stroke="url(#goldGrad)" stroke-width="2" stroke-dasharray="17 16" opacity="0.45000000000000007" /><circle cx="0" cy="0" r="51.2" fill="none" stroke="url(#goldGrad)" stroke-width="2" stroke-dasharray="21 18" opacity="0.55" /><line x1="0" y1="0" x2="48.64" y2="0.0" stroke="#c0c0c0" stroke-width="1" opacity="0.15" stroke-dasharray="3 3" /><circle cx="48.64" cy="0.0" r="6" fill="url(#goldGrad)" opacity="0.8" /><circle cx="48.64" cy="0.0" r="10" fill="none" stroke="#ffd700" stroke-width="1" opacity="0.3" /><line x1="0" y1="0" x2="43.06858108777213" y2="22.604135088208903" stroke="#c0c0c0" stroke-width="1" opacity="0.15" stroke-dasharray="3 3" /><circle cx="43.06858108777213" cy="22.604135088208903" r="11" fill="url(#goldGrad)" opacity="0.8" /><circle cx="43.06858108777213" cy="22.604135088208903" r="15" fill="none" stroke="#ffd700" stroke-width="1" opacity="0.3" /><line x1="0" y1="0" x2="27.63066928100342" y2="40.02993523706745" stroke="#c0c0c0" stroke-width="1" opacity="0.15" stroke-dasharray="3 3" /><circle cx="27.63066928100342" cy="40.02993523706745" r="7" fill="url(#goldGrad)" opacity="0.8" /><circle cx="27.63066928100342" cy="40.02993523706745" r="11" fill="none" stroke="#ffd700" stroke-width="1" opacity="0.3" /><line x1="0" y1="0" x2="5.862904127618911" y2="48.28535963612934" stroke="#c0c0c0" stroke-width="1" opacity="0.15" stroke-dasharray="3 3" /><circle cx="5.862904127618911" cy="48.28535963612934" r="6" fill="url(#goldGrad)" opacity="0.8" /><circle cx="5.862904127618911" cy="48.28535963612934" r="10" fill="none" stroke="#ffd700" stroke-width="1" opacity="0.3" /><line x1="0" y1="0" x2="-17.247981705748934" y2="45.479190044218576" stroke="#c0c0c0" stroke-width="1" opacity="0.15" stroke-dasharray="3 3" /><circle cx="-17.247981705748934" cy="45.479190044218576" r="6" fill="url(#goldGrad)" opacity="0.8" /><circle cx="-17.247981705748934" cy="45.479190044218576" r="10" fill="none" stroke="#ffd700" stroke-width="1" opacity="0.3" /><line x1="0" y1="0" x2="-36.407562791042345" y2="32.254286096832296" stroke="#c0c0c0" stroke-width="1" opacity="0.15" stroke-dasharray="3 3" /><circle cx="-36.407562791042345" cy="32.254286096832296" r="7" fill="url(#goldGrad)" opacity="0.8" /><circle cx="-36.407562791042345" cy="32.254286096832296" r="11" fill="none" stroke="#ffd700" stroke-width="1" opacity="0.3" /><line x1="0" y1="0" x2="-47.22660999960317" y2="11.640313910946805" stroke="#c0c0c0" stroke-width="1" opacity="0.15" stroke-dasharray="3 3" /><circle cx="-47.22660999960317" cy="11.640313910946805" r="7" fill="url(#goldGrad)" opacity="0.8" /><circle cx="-47.22660999960317" cy="11.640313910946805" r="11" fill="none" stroke="#ffd700" stroke-width="1" opacity="0.3" /><line x1="0" y1="0" x2="-47.22660999960317" y2="-11.640313910946816" stroke="#c0c0c0" stroke-width="1" opacity="0.15" stroke-dasharray="3 3" /><circle cx="-47.22660999960317" cy="-11.640313910946816" r="9" fill="url(#goldGrad)" opacity="0.8" /><circle cx="-47.22660999960317" cy="-11.640313910946816" r="13" fill="none" stroke="#ffd700" stroke-width="1" opacity="0.3" /><line x1="0" y1="0" x2="-36.40756279104235" y2="-32.25428609683228" stroke="#c0c0c0" stroke-width="1" opacity="0.15" stroke-dasharray="3 3" /><circle cx="-36.40756279104235" cy="-32.25428609683228" r="6" fill="url(#goldGrad)" opacity="0.8" /><circle cx="-36.40756279104235" cy="-32.25428609683228" r="10" fill="none" stroke="#ffd700" stroke-width="1" opacity="0.3" /><line x1="0" y1="0" x2="-17.247981705748945" y2="-45.47919004421857" stroke="#c0c0c0" stroke-width="1" opacity="0.15" stroke-dasharray="3 3" /><circle cx="-17.247981705748945" cy="-45.47919004421857" r="7" fill="url(#goldGrad)" opacity="0.8" /><circle cx="-17.247981705748945" cy="-45.47919004421857" r="11" fill="none" stroke="#ffd700" stroke-width="1" opacity="0.3" /><line x1="0" y1="0" x2="5.862904127618878" y2="-48.28535963612935" stroke="#c0c0c0" stroke-width="1" opacity="0.15" stroke-dasharray="3 3" /><circle cx="5.862904127618878" cy="-48.28535963612935" r="9" fill="url(#goldGrad)" opacity="0.8" /><circle cx="5.862904127618878" cy="-48.28535963612935" r="13" fill="none" stroke="#ffd700" stroke-width="1" opacity="0.3" /><line x1="0" y1="0" x2="27.630669281003442" y2="-40.02993523706743" stroke="#c0c0c0" stroke-width="1" opacity="0.15" stroke-dasharray="3 3" /><circle cx="27.630669281003442" cy="-40.02993523706743" r="7" fill="url(#goldGrad)" opacity="0.8" /><circle cx="27.630669281003442" cy="-40.02993523706743" r="11" fill="none" stroke="#ffd700" stroke-width="1" opacity="0.3" /><line x1="0" y1="0" x2="43.06858108777214" y2="-22.604135088208896" stroke="#c0c0c0" stroke-width="1" opacity="0.15" stroke-dasharray="3 3" /><circle cx="43.06858108777214" cy="-22.604135088208896" r="8" fill="url(#goldGrad)" opacity="0.8" /><circle cx="43.06858108777214" cy="-22.604135088208896" r="12" fill="none" stroke="#ffd700" stroke-width="1" opacity="0.3" /><polygon points="20.48,0.0 6.328668044798924,19.477637453724746 -16.568668044798923,12.037841966949852 -16.568668044798926,-12.037841966949848 6.32866804479892,-19.477637453724746" fill="#131822" stroke="url(#goldGrad)" stroke-width="4" filter="drop-shadow(0 0 15px rgba(212,175,55,0.4))" /><circle cx="0" cy="0" r="12.288" fill="none" stroke="#ffffff" stroke-width="1.5" opacity="0.7" stroke-dasharray="8 4" /><circle cx="0" cy="0" r="12" fill="url(#goldGrad)" /><circle cx="0" cy="0" r="20" fill="none" stroke="#ffd700" stroke-width="1" opacity="0.5" /></g></svg>