<svg xmlns="http://www.w3.org/2000/svg" viewBox="0 0 512 512" width="512" height="512">
  <circle cx="256" cy="256" r="240" fill="#F7931A"/>
  <path d="M368.86 219.38c5.14-34.38-21-52.88-56.8-65.23l11.6-46.53-28.31-7.06-11.3 45.33c-7.44-1.86-15.09-3.61-22.69-5.35l11.39-45.71-28.31-7.06-11.6 46.54c-6.16-1.41-12.11-2.78-17.92-4.22l.03-.14-39.04-9.74-7.54 30.24s21 .48 20.56.51c11.46 2.86 16.92 10.43 16.5 16.45l-16.52 66.26c1 .25 2.28.62 3.7.18-1.19-.3-2.46-.62-3.38-.88l-23.16 92.87c-1.4 3.48-4.96 8.7-12.98 6.71.29.42-20.57-5.14-20.57-5.14l-14.06 32.45 36.84 9.18c6.86 1.71 13.6 3.5 20.22 5.18l-11.71 47.02 28.31 7.06 11.6-46.58c7.74 2.1 15.28 4 22.62 5.76l-11.49 46.03 28.31 7.06 11.72-47.06c48.32 9.14 84.66 5.46 99.94-38.26 12.34-35.22-.62-55.52-26.06-68.73 18.53-4.28 32.48-16.48 36.19-41.72zm-64.66 91.02c-8.77 35.22-68.06 16.18-87.3 11.39l15.58-62.49c19.24 4.8 80.77 14.28 71.72 51.1zm8.78-91.5c-8 32.08-57.44 15.79-73.44 11.82l14.13-56.69c16 3.99 67.48 11.47 59.31 44.87z" fill="white"/>
</svg>
